<?xml version="1.0" encoding="UTF-8"?>
<!DOCTYPE svg PUBLIC "-//W3C//DTD SVG 1.1//EN" "http://www.w3.org/Graphics/SVG/1.1/DTD/svg11.dtd">
<!-- Creator: CorelDRAW (Evaluation Version) -->
<svg xmlns="http://www.w3.org/2000/svg" xml:space="preserve" width="1.99999in" height="1.99999in" version="1.1" style="shape-rendering:geometricPrecision; text-rendering:geometricPrecision; image-rendering:optimizeQuality; fill-rule:evenodd; clip-rule:evenodd"
viewBox="0 0 1999.99 1999.99"
 xmlns:xlink="http://www.w3.org/1999/xlink"
 xmlns:xodm="http://www.corel.com/coreldraw/odm/2003">
 <defs>
  <style type="text/css">
   <![CDATA[
    .fil3 {fill:#FEFEFE}
    .fil0 {fill:#F1891A}
    .fil1 {fill:#58C0ED}
    .fil2 {fill:#5F64AA}
   ]]>
  </style>
 </defs>
 <g id="__x0023_Layer_x0020_1">
  <metadata id="CorelCorpID_0Corel-Layer"/>
  <path class="fil0" d="M1501.94 1987.28c-33.05,-0.35 -62.41,-27.3 -65.35,-60.07 -0.77,-8.65 -1.15,-17.37 -1.15,-26.06 -0.08,-104.85 0,-209.69 -0.14,-314.54 -0.02,-8.87 0.33,-18.28 -2.39,-26.48 -5.06,-15.24 -15.74,-20.8 -33.59,-20.47 -36.37,0.65 -72.74,1.65 -109.12,1.79 -28.89,0.12 -57.81,-0.49 -86.7,-1.45 -21.02,-0.7 -37.37,-12.22 -51.9,-25.77 -29.59,-27.57 -39.6,-63.26 -40.57,-102.19 -2.14,-86.34 -4.14,-172.7 -6.21,-259.05 -1.34,-56.06 -2.67,-112.1 -4.09,-168.15 -1.82,-72.17 -3.63,-144.33 -5.61,-216.49 -1.07,-38.95 17.81,-61.76 57.61,-64.38 36.89,-2.43 73.99,-2.26 110.99,-2.19 105.29,0.22 210.59,0.98 315.88,1.53 1.62,0.01 3.25,0 4.88,0.01 26.82,0.03 27.55,0.56 35.57,25.46 -0.88,3.71 -1.35,7.57 -2.71,11.09 -5.31,13.76 -10.98,27.38 -16.4,41.1 -49.21,124.79 -98.51,249.55 -147.51,374.42 -12,30.57 0.24,55.48 31.52,66.37 1.7,0.87 3.36,1.9 5.14,2.59 56.46,22 112.78,44.36 169.46,65.79 38.54,14.57 77.59,27.83 116.42,41.67 3.17,6.59 6.26,13.24 9.53,19.78 10.3,20.66 23.3,40.42 30.48,62.09 17.15,51.74 24.21,105.89 31.57,159.65 9.58,69.98 4.76,140.26 -0.7,210.33 -2.74,35.3 -6.25,70.56 -10.68,105.69 -2.1,16.64 3.87,26.24 18.24,34.2 12.57,6.96 12.01,8.06 23.47,16.91 7.16,5.51 29.42,21.47 7.69,34.55 -10.9,4.72 -56.04,5.73 -67.57,8.28l-316.07 3.98z"/>
  <path class="fil1" d="M1307.47 1837.04c-0.22,-11.68 -3.3,-14.55 -15.36,-14.53 -16.24,0.02 -32.48,0.05 -48.72,0.06 -12.07,0 -15.67,4.67 -15.47,16.63 0.66,38.98 0.67,77.97 1.11,116.96 0.07,6.11 -2.81,7.78 -8.31,7.76 -20.47,-0.09 -40.93,-0.16 -61.4,0.12 -6.01,0.08 -5.8,-3.18 -5.69,-7.42 1.88,-81.13 4.48,-162.25 5.13,-243.39 0.3,-37.58 -3.15,-75.19 -5.09,-112.78 -0.63,-12.13 2.54,-16.07 14.49,-16.13 14.94,-0.08 29.91,0.31 44.83,-0.17 6.93,-0.22 8.74,2.06 8.7,8.77 -0.26,47.4 0.04,94.81 -0.31,142.21 -0.06,7.74 1.56,10.67 10.03,10.41 20.44,-0.63 40.94,-0.52 61.4,-0.04 7.4,0.17 9.3,-2.17 9.26,-9.31 -0.3,-47.08 0.15,-94.17 -0.41,-141.24 -0.11,-10.03 3.24,-13.4 12.73,-12.57 17.74,1.54 35.49,2.91 53.24,4.29 7.13,0.55 5.67,5.86 5.62,10.12 -0.43,32.2 -1.5,64.41 -1.37,96.6 0.18,39.3 1.3,78.6 2.09,117.9 0.57,28.65 1.25,57.31 1.94,85.96 0.37,15.44 0.75,30.88 1.38,46.31 0.21,5.2 -1.76,7.36 -6.62,9.91 -12.56,6.59 -24.32,14.69 -36.43,22.11 -4.35,2.67 -8.8,5.17 -13.21,7.74l-7.8 0 -5.74 -146.26z"/>
  <path class="fil1" d="M1620.05 728.77c5.6,-13.3 10.71,-26.83 16.93,-39.86 12.91,-27.05 35.94,-36.81 64.36,-26.38 33.72,12.37 66.97,26 100.48,38.95 58.86,22.74 117.77,45.31 176.6,68.12 11.72,4.54 35.88,12.05 18.73,60.03l-377.09 -100.87z"/>
  <path class="fil1" d="M1674.1 742.84c-39.81,100.66 -118.23,296.16 -157.94,396.85 -10.74,27.22 -20.82,54.7 -31.2,82.06 -31.28,-10.89 -43.51,-35.8 -31.52,-66.37 49,-124.88 117.41,-301.82 166.62,-426.61l54.04 14.07z"/>
  <path class="fil0" d="M1371.92 574.1c0.28,0.42 0.52,0.88 0.88,1.22 0.09,0.09 0.56,-0.22 0.85,-0.35 -0.49,-0.36 -0.98,-0.72 -1.46,-1.08 -1.84,-1.7 -3.55,-3.56 -5.53,-5.08 -57.79,-44.22 -83.83,-117.95 -65.59,-185.85 31.47,-117.24 166.45,-172.28 272.03,-110.98 21.75,12.63 40.09,29.03 56.66,50.82 -1.15,-28.24 -5.97,-53.26 -14.93,-77.5 -42.46,-114.81 -164.73,-181.96 -286.83,-157.5 -109.89,22.02 -189.52,108.57 -201.25,218.76 -10.8,101.43 49.4,203.4 145.51,246.02 31.65,14.03 64.57,22.85 99.68,21.52zm-2.7 -567.37l0 0c155.69,0 289.93,105.22 324.43,254.28 29.33,126.72 -22.83,260.31 -131.98,335.9 -68.08,47.15 -143.89,66.51 -226.59,58.55 -146.82,-14.12 -268.01,-120.11 -293.37,-262.74 -23.94,-134.55 22.75,-244.07 133.17,-325.47 56.21,-41.43 122.61,-60.52 194.33,-60.52z"/>
  <path class="fil1" d="M691.63 1773.03c-1.37,10.6 -3.93,21.2 -3.9,31.79 0.17,50.28 0.75,100.57 1.94,150.83 0.24,10.07 -2.59,12.63 -12.33,12.08 -14.91,-0.84 -29.91,-0.65 -44.84,-0.04 -7.82,0.31 -9.82,-2.21 -9.77,-9.78 0.4,-64.51 0.49,-129.03 0.51,-193.55 0.01,-45.48 -0.17,-90.97 -0.41,-136.45 -0.05,-8.03 -0.76,-16.05 -1.28,-24.07 -0.32,-5.03 1.42,-7.86 6.97,-8.17 19.72,-1.11 39.5,-3.88 59.1,-2.85 6.62,0.36 15,8.95 18.64,15.83 8.55,16.19 15.89,33.24 21.6,50.62 12.96,39.41 24.57,79.25 36.99,118.83 0.88,2.8 3.88,4.93 5.89,7.37 1.51,-3.03 4.38,-6.09 4.32,-9.09 -1.09,-61.53 -2.33,-123.06 -4.09,-184.57 -0.28,-9.38 2.19,-12.09 11.71,-11.83 17.16,0.46 34.39,-0.29 51.55,-1.21 7.87,-0.42 9.89,2.3 9.72,9.83 -1.55,66.04 -3.13,132.09 -3.92,198.14 -0.62,52.25 -0.11,104.51 -0.13,156.77 -0.01,15.69 -1.42,16.85 -17.52,16.57 -13.65,-0.24 -27.3,-0.38 -40.94,-0.1 -10.95,0.22 -17.46,-4.67 -21.23,-14.76 -20.17,-54.02 -40.56,-107.96 -60.92,-161.91 -1.32,-3.5 -2.96,-6.88 -4.45,-10.32 -1.08,0.01 -2.16,0.02 -3.23,0.04z"/>
  <path class="fil1" d="M178.43 1857.3c0,12.9 0.15,25.81 -0.08,38.71 -0.08,4.83 0.56,8 6.52,8.12 8.07,0.19 16.13,1.12 24.19,1.57 24.35,1.35 40.93,-10.96 51.74,-31.07 12.07,-22.44 7.12,-57.17 -24.55,-64.83 -17.11,-4.13 -33.97,-3.65 -50.86,1.12 -5.18,1.47 -7.25,4.09 -7.08,9.61 0.4,12.24 0.13,24.52 0.13,36.77zm-2.13 -158.63l0 0c0,12.22 0,24.46 0,36.68 0,23.71 0.07,24.02 23.58,19.28 24.49,-4.95 43.37,-17.22 49.64,-42.8 2.26,-9.22 2.02,-19.03 3.23,-28.54 3.12,-24.66 -26.86,-55.13 -62.38,-48.33 -10.71,2.05 -14.04,6.62 -14.06,17.37 -0.04,15.45 -0.01,30.9 -0.01,46.35zm87.81 68.57l0 0c10.35,7.52 21.43,14.34 31.03,22.81 27.46,24.24 34.64,55.2 23.46,88.76 -14.96,44.92 -42.98,79.39 -92.1,89.22 -20.95,4.19 -43.21,2.04 -64.88,2.59 -11.95,0.3 -23.96,-0.4 -35.85,0.51 -12.11,0.92 -15.31,-1.27 -15.31,-13.29 0.04,-118.02 0.06,-236.03 0.09,-354.05 0,-6.08 1.26,-12.6 -7.88,-13.95 -1.07,-0.15 -2.33,-4.93 -1.93,-7.3 0.29,-1.74 2.98,-4.11 4.88,-4.41 12.46,-1.93 24.99,-4.57 37.52,-4.72 26.9,-0.3 54.04,-1.25 80.67,1.73 51.1,5.72 95.39,57.5 94.89,108.17 -0.23,23.27 -11.32,41.99 -26.87,58.27 -8.83,9.24 -18.77,17.45 -27.71,25.66z"/>
  <path class="fil1" d="M966.34 1784.61c2.52,27.81 4.62,57.32 8.19,86.65 1.17,9.63 5.15,19.33 9.64,28.09 7.68,15.03 21.69,19.86 37.86,14.7 17.35,-5.54 28.55,-17.77 31.71,-34.81 2.94,-15.88 2.75,-32.43 2.79,-48.69 0.01,-6.91 -0.17,-10.73 8.6,-10.23 12.96,0.74 26,-0.15 38.97,0.47 2.77,0.13 7.56,3.5 7.76,5.71 3.81,42.22 -0.25,82.93 -30.93,115.72 -27.5,29.39 -62.24,38.99 -101.11,28.91 -37.42,-9.7 -60.11,-34.68 -69.85,-71.95 -13,-49.77 -16.12,-100.11 -12.21,-151.24 2.96,-38.76 9.93,-76.45 24.55,-112.62 17.63,-43.59 55.23,-58.03 95.82,-51.67 47.32,7.41 74.96,38.11 82.71,88.52 2.48,16.16 2.76,32.65 4.41,48.96 0.71,7.08 -2.2,8.74 -8.81,8.53 -13.63,-0.44 -27.3,-0.53 -40.93,0.04 -6.86,0.29 -8.74,-1.84 -9.19,-8.52 -1.23,-18.08 -4.56,-35.77 -15.07,-51.23 -12.82,-18.84 -34.43,-19.38 -45.45,0.7 -7.07,12.88 -10.85,28.21 -13.06,42.89 -3.44,22.83 -4.28,46.05 -6.39,71.03z"/>
  <path class="fil1" d="M444.19 1595.36c30.1,-1.64 60.22,-3.07 90.31,-5.03 7.48,-0.5 10.58,1.18 10.39,9.21 -0.46,18.7 -0.24,37.41 -0.1,56.11 0.05,6.3 -1.65,8 -8.67,7.09 -18.29,-2.38 -36.74,-3.73 -55.16,-4.86 -30.2,-1.87 -39.86,11.35 -42.65,40.31 -1.17,12.18 1.36,25.03 4.07,37.17 3.12,13.98 12.56,19.78 27.13,19.58 12.9,-0.17 25.98,-1.51 38.67,0.14 22.91,2.97 37.7,34.55 26.24,54.64 -5.28,9.24 -14.45,12.57 -24.76,12.7 -13,0.17 -26,-0.05 -39,0.07 -12.24,0.11 -17.25,5.02 -17.33,16.89 -0.1,15.48 0.26,30.96 -0.16,46.44 -0.18,6.52 2.22,8.19 8.44,8.14 31.2,-0.26 62.41,0.09 93.6,-0.28 7.21,-0.08 9.46,1.89 9.52,9.18 0.14,17.7 1.37,35.39 1.99,53.08 0.43,12.54 -2.43,15.52 -15.18,15.34 -22.39,-0.33 -44.76,-1.16 -67.15,-1.4 -26.97,-0.3 -53.95,-0.21 -80.92,-0.3 -3.58,-0.02 -7.17,0.09 -10.72,-0.19 -11.56,-0.87 -15.91,-7.49 -12.69,-18.46 1.53,-5.19 3.29,-10.57 3.35,-15.88 0.67,-62.21 2,-124.43 1.15,-186.62 -0.56,-40.48 -4.76,-80.9 -6.69,-121.38 -1.53,-32.17 -2.48,-33.64 29.17,-33 12.35,0.26 24.78,1.31 37.13,1.31 0.03,0.42 -0.02,-0.43 0,0z"/>
  <path class="fil2" d="M953.15 1347.77c0,10.28 0.14,20.57 -0.07,30.85 -0.09,4.63 0.96,6.96 6.38,7.02 29.57,0.37 44.59,-14.03 44.57,-43.42 0,-5.11 -0.27,-10.29 -1.08,-15.33 -1.96,-12.14 -8.18,-18.54 -20.39,-19.54 -7.63,-0.62 -15.52,0.09 -23.08,1.42 -2.46,0.43 -5.87,4.59 -6.05,7.22 -0.69,10.56 -0.28,21.19 -0.28,31.79zm-41.32 47.83l0 0c0,-40.3 0.09,-80.61 -0.11,-120.91 -0.03,-5.88 0.94,-8.38 7.83,-8.2 20.72,0.52 41.67,-1.55 62.14,0.73 14,1.56 28.27,7.03 40.81,13.74 18.65,9.97 25.72,27.35 23.14,48.26 -1.57,12.74 -2.39,25.71 -5.46,38.11 -3.28,13.27 -10.8,23.93 -25.52,27.9 -3,0.81 -7.46,5.33 -7.09,7.41 0.73,4.13 3.69,10.35 6.9,11.18 25.67,6.57 30.05,25.75 30.17,47.73 0.14,23.85 -0.06,47.7 0.11,71.54 0.03,4.62 -0.77,7.2 -6.24,7.07 -11.95,-0.27 -23.93,-0.22 -35.88,0.02 -5.15,0.1 -5.16,-2.22 -5.2,-6.49 -0.28,-27.27 -0.57,-54.56 -1.8,-81.81 -0.59,-13.22 -10.56,-23.71 -22.95,-26.94 -9.3,-2.43 -13.74,-0.56 -14.85,9.46 -1.32,11.72 -0.88,23.76 -0.05,35.59 1,14.43 3.64,28.74 4.74,43.17 0.8,10.38 -2.77,12.83 -13.32,12.31 -9.07,-0.44 -18.2,-0.68 -27.24,0 -7.94,0.59 -10.46,-1.57 -10.36,-9.91 0.48,-39.97 0.21,-79.96 0.22,-119.94z"/>
  <path class="fil2" d="M165.67 1304.53c-14.04,2.02 -16.45,1.07 -16.3,14.46 0.18,15.06 1.26,30.11 1.73,45.18 0.55,17.87 9.02,24.15 25.84,17.46 16.35,-6.5 25.69,-20.1 31.1,-36.11 4.61,-13.63 0.7,-25.31 -11.83,-32.37 -9.31,-5.25 -13.91,-8.61 -30.53,-8.61zm-36.77 220.33l0 0c-8.59,-0.18 -12.22,-2.27 -12.08,-11.63 0.67,-44.15 1.34,-88.31 0.68,-132.46 -0.43,-28.61 -3.1,-57.19 -4.89,-85.79 -1.22,-19.55 -3.71,-31.7 25.47,-28.45 18.26,2.03 37.07,-0.83 55.37,1.04 28.67,2.94 45.03,21.48 54.81,47.2 9.72,25.57 1.88,46.76 -15.83,65.39 -7.76,8.15 -16.75,15.14 -25.18,22.66 0.44,1.08 -1.31,-3.24 0,0 30.85,5.65 41.18,30.91 42.78,57.67 1.43,23.78 1.63,47.64 2.57,71.45 0.2,5.04 -1.11,8.31 -6.66,8.28 -11.59,-0.08 -23.33,0.67 -34.74,-0.87 -7.95,-1.06 -9.48,-8.87 -9.53,-15.99 -0.12,-19.33 0.07,-38.68 -0.15,-58.02 -0.07,-5.76 -0.6,-11.62 -1.8,-17.24 -3.13,-14.76 -17.91,-25.04 -32.73,-22.51 -1.89,0.33 -4.37,4.75 -4.38,7.28 -0.18,25.14 0.07,50.28 0.28,75.41 0.13,14.97 -4.15,18.73 -19.48,17.18l-14.52 -0.6z"/>
  <path class="fil2" d="M640.73 1401.48c-0.52,0 0.52,0 0,0 0,18.34 -0.65,36.71 0.18,55.02 0.86,18.94 15.83,26.62 30.93,15.1 8.58,-6.54 16.29,-16.22 20.42,-26.11 12.05,-28.86 12.27,-59.02 2.7,-88.66 -5.84,-18.13 -17.34,-32.4 -36.48,-38.74 -11.39,-3.78 -16.14,-0.43 -16.17,11.07 -0.05,24.11 -1.59,48.22 -1.59,72.33zm-43.63 5.95l0 0c1.57,-41.13 2.97,-80.69 4.65,-120.24 0.72,-17.09 8.2,-25.32 24.86,-23.76 36.27,3.41 68.75,15.8 92.07,45.45 11.53,14.67 16,32.31 18.29,50.26 4.47,34.91 6.07,69.91 -2.22,104.59 -5.19,21.72 -18.36,37.35 -38.43,47.12 -22.04,10.75 -45.49,16.69 -69.88,19.14 -1.28,0.13 -2.59,0.15 -3.88,0.15 -17.3,0.15 -21.53,-2.96 -22.28,-20.01 -1.52,-34.73 -2.19,-69.49 -3.17,-102.71z"/>
  <g id="_1841094498384">
   <path class="fil2" d="M511.18 1413.12c9.54,-1.64 18.03,-10.41 16.64,-20.19 -1.26,-8.9 -2.61,-17.78 -4.33,-26.59 -2.41,-12.28 -4.22,-24.81 -8.26,-36.59 -1.72,-5.03 -7.74,-10.15 -12.98,-12.07 -7.23,-2.63 -11.74,3.57 -14.83,9.55 -1.91,3.7 -3.94,7.56 -4.7,11.59 -3.61,19.19 -7.48,38.38 -9.89,57.74 -1.65,13.31 7.37,16.26 21.06,16.56l17.29 0zm-10.64 -146.35l0 0c3.25,0 6.5,0.11 9.73,-0.02 22.63,-0.86 22.64,-0.87 27.61,20.96 15.68,68.98 31.35,137.97 47.04,206.95 4.03,17.74 0.52,22.12 -17.89,22.15 -21.08,0.05 -30.27,-8.47 -31.63,-29.34 -0.41,-6.41 -0.43,-12.87 -1.31,-19.21 -1.04,-7.48 -6.12,-11.47 -13.49,-11.31 -12.31,0.26 -24.63,0.91 -36.89,2.05 -7.73,0.73 -13.26,5.34 -15.44,12.88 -2.6,8.94 -4.79,18 -7,27.06 -4.71,19.28 -18.82,28.64 -38.43,24.71 -2.65,-0.53 -6.54,-4.22 -6.62,-6.55 -0.3,-8.24 -0.26,-16.77 1.57,-24.74 8.66,-37.59 18.37,-74.94 26.91,-112.55 6.97,-30.72 12.3,-61.8 19.37,-92.5 4.85,-21.07 6.28,-21.35 27.74,-20.3 2.91,0.15 5.83,0.02 8.74,0.02 0,-0.09 0,-0.18 0,-0.27z"/>
  </g>
  <path class="fil2" d="M274.39 1397.4c0,-36.11 0.15,-72.2 -0.14,-108.3 -0.05,-6.52 1.43,-8.57 8.47,-8.88 30.12,-1.32 60.22,-3.22 90.27,-5.52 6.78,-0.51 9.85,1.29 9.96,7.76 0.18,11.28 -0.16,22.56 0.29,33.82 0.36,9.18 -4.39,9.94 -11.59,8.22 -11.66,-2.78 -23.32,-5.56 -35.06,-8 -16.96,-3.53 -21.58,-0.03 -21.53,17.01 0.04,13.52 1.09,27.02 1.41,40.54 0.14,6.24 3.84,7.44 8.96,7.43 13.64,-0.02 27.29,0.28 40.92,-0.11 6.18,-0.18 9.11,1.87 9.21,8.04 0.17,9.95 0.76,19.9 0.5,29.84 -0.04,1.65 -3.34,4.47 -5.3,4.61 -9.33,0.66 -18.73,0.73 -28.09,0.73 -17.48,-0.01 -20.8,3.56 -18.64,20.51 3.57,27.98 3.57,27.98 32.27,27.98 10.72,0.01 21.44,-0.2 32.15,0.18 2.18,0.07 6.15,2.3 6.15,3.52 -0.07,12.8 -0.41,25.63 -1.5,38.38 -0.46,5.27 -3.41,6.89 -10.13,6.16 -22.49,-2.44 -45.17,-3.23 -67.79,-4.47 -11.01,-0.6 -22.04,-0.9 -33.07,-1.14 -6.21,-0.14 -7.91,-3 -7.85,-9.05 0.28,-36.43 0.14,-72.85 0.14,-109.27z"/>
  <path class="fil2" d="M761.04 1397.76c0.01,-36.1 0.06,-72.2 -0.06,-108.3 -0.02,-5.49 0.41,-8.54 7.63,-8.86 31.08,-1.37 62.12,-3.68 93.19,-5.27 2.09,-0.11 6.16,2.84 6.24,4.51 0.62,13.81 0.73,27.65 0.26,41.45 -0.05,1.41 -5.16,4.14 -7.47,3.73 -13.7,-2.42 -27.24,-5.76 -40.89,-8.44 -14.03,-2.76 -18.75,0.71 -18.92,15.07 -0.17,14.46 0.8,28.94 1.29,43.41 0.23,6.89 5.4,7.27 10.37,7.33 13.31,0.15 26.64,0.35 39.94,-0.06 6.4,-0.2 8.8,2.23 8.83,8.3 0.06,9.65 0.85,19.32 0.35,28.94 -0.09,1.98 -4.34,5.18 -6.85,5.35 -9.68,0.65 -19.43,0.24 -29.16,0.34 -14.42,0.18 -17.91,4.19 -16.09,18.28 0.17,1.28 0.3,2.56 0.43,3.83 2.46,24.81 4.24,26.44 29.02,26.44 11.36,0 22.74,0.35 34.09,-0.14 6.19,-0.26 7.78,1.86 7.52,7.69 -0.44,9.63 0.62,19.36 -0.24,28.94 -0.98,10.93 -3.94,11.56 -14.85,10.61 -21.59,-1.89 -43.27,-2.63 -64.93,-3.65 -10.38,-0.48 -20.76,-0.61 -31.16,-0.7 -6.57,-0.07 -8.74,-2.91 -8.69,-9.54 0.3,-36.41 0.14,-72.84 0.15,-109.26z"/>
  <path class="fil2" d="M1807.15 1313.3c0,0 -15.28,18.5 -31.17,18.5 -38.83,-13.84 -77.88,-27.1 -116.43,-41.67 -56.68,-21.43 -113,-43.79 -169.46,-65.79 -1.78,-0.69 -3.44,-1.71 -5.14,-2.59 10.38,-27.36 20.46,-54.84 31.2,-82.06 39.72,-100.7 79.69,-201.29 119.5,-301.95 10.66,-26.96 21.01,-54.04 31.65,-81.02 1.89,-4.78 4.3,-9.38 6.8,-13.89 11.13,-20.09 29.58,-29.31 51.5,-22.5 27.19,8.45 180.04,72 271.54,109.3l-190 483.66z"/>
  <path class="fil3" d="M1372.18 573.9c0.49,0.36 0.98,0.72 1.46,1.08 -0.29,0.13 -0.76,0.43 -0.85,0.35 -0.36,-0.34 -0.6,-0.8 -0.89,-1.22 -0.02,0.02 0.28,-0.21 0.28,-0.21z"/>
 </g>
</svg>
